# xmcd
#
# Track frame offsets:
# 150
# 885
# 1618
# 2089
# 2797
# 3385
# 4099
# 4885
#
# Disc length: 69 seconds
#
#
# Revision: 1
# Processed by: cddbd v1.5.2PL0 Copyright (c) Steve Scherf et al.
# Submitted via: FreeRIP 2.941 
#
DISCID=37004308
DTITLE=rfm - spot
DYEAR=2014
DGENRE=Hip-Hop
TTITLE0=martinez
TTITLE1=02
TTITLE2=03
TTITLE3=04
TTITLE4=05
TTITLE5=06
TTITLE6=07
TTITLE7=08
EXTD=
EXTT0=
EXTT1=
EXTT2=
EXTT3=
EXTT4=
EXTT5=
EXTT6=
EXTT7=
PLAYORDER=
